<mxfile host="app.diagrams.net" modified="2024-05-08T11:06:10.575Z" agent="Mozilla/5.0 (Macintosh; Intel Mac OS X 10_15_7) AppleWebKit/605.1.15 (KHTML, like Gecko) Version/16.6 Safari/605.1.15" etag="t3B3LdqmCNNdVyDbsZkZ" version="24.3.1" type="github">
  <diagram name="Page-1" id="oeU3eeCdYxMcoUBLrMce">
    <mxGraphModel dx="882" dy="617" grid="1" gridSize="10" guides="1" tooltips="1" connect="1" arrows="1" fold="0" page="1" pageScale="1" pageWidth="827" pageHeight="1169" math="0" shadow="0">
      <root>
        <mxCell id="0" />
        <mxCell id="1" parent="0" />
        <mxCell id="Qu6rK6DsybyG0TXRVJJE-2" value="frame" style="shape=umlFrame;whiteSpace=wrap;html=1;pointerEvents=0;" parent="1" vertex="1">
          <mxGeometry x="108" y="65" width="590" height="520" as="geometry" />
        </mxCell>
        <mxCell id="Qu6rK6DsybyG0TXRVJJE-3" value="Student" style="shape=umlActor;verticalLabelPosition=bottom;verticalAlign=top;html=1;fontSize=18;" parent="1" vertex="1">
          <mxGeometry x="38" y="195" width="30" height="60" as="geometry" />
        </mxCell>
        <mxCell id="Qu6rK6DsybyG0TXRVJJE-4" value="&lt;b style=&quot;font-style: normal; font-variant-caps: normal; letter-spacing: normal; text-align: start; text-indent: 0px; text-transform: none; white-space: normal; word-spacing: 0px; -webkit-text-stroke-width: 0px; text-decoration: none; caret-color: rgb(0, 0, 0); color: rgb(0, 0, 0); font-weight: normal; font-size: 18px;&quot; id=&quot;docs-internal-guid-332cffb9-7fff-b3e5-f795-6fdb4fea1be7&quot;&gt;&lt;span style=&quot;font-size: 18px; font-family: Sarabun, sans-serif; color: rgb(0, 0, 0); background-color: transparent; font-weight: 400; font-style: normal; font-variant-ligatures: normal; font-variant-caps: normal; font-variant-alternates: normal; font-variant-numeric: normal; font-variant-east-asian: normal; font-variant-position: normal; text-decoration: none; vertical-align: baseline; white-space: pre-wrap;&quot;&gt;Examination Committee&lt;/span&gt;&lt;/b&gt;" style="shape=umlActor;verticalLabelPosition=bottom;verticalAlign=top;html=1;fontSize=18;" parent="1" vertex="1">
          <mxGeometry x="750" y="290" width="30" height="60" as="geometry" />
        </mxCell>
        <mxCell id="Qu6rK6DsybyG0TXRVJJE-5" value="&lt;span style=&quot;text-align: start; white-space: normal; font-size: 18px;&quot; id=&quot;docs-internal-guid-174a14e5-7fff-aafb-49ae-a529cb986828&quot;&gt;&lt;span style=&quot;font-size: 18px; font-family: Sarabun, sans-serif; font-variant-ligatures: normal; font-variant-alternates: normal; font-variant-numeric: normal; font-variant-east-asian: normal; font-variant-position: normal; vertical-align: baseline; white-space: pre-wrap;&quot;&gt;Advisor&lt;/span&gt;&lt;/span&gt;" style="shape=umlActor;verticalLabelPosition=bottom;verticalAlign=top;html=1;fontSize=18;" parent="1" vertex="1">
          <mxGeometry x="750" y="140" width="30" height="60" as="geometry" />
        </mxCell>
        <mxCell id="FnzWBg0ubWm0rds8tLxr-1" value="&lt;b style=&quot;font-style: normal; font-variant-caps: normal; letter-spacing: normal; text-align: start; text-indent: 0px; text-transform: none; white-space: normal; word-spacing: 0px; -webkit-text-stroke-width: 0px; text-decoration: none; caret-color: rgb(0, 0, 0); color: rgb(0, 0, 0); font-weight: normal; font-size: 18px;&quot; id=&quot;docs-internal-guid-b0b2e66d-7fff-87d3-3b14-03076da479f0&quot;&gt;&lt;span style=&quot;font-size: 18px; font-family: Sarabun, sans-serif; color: rgb(0, 0, 0); background-color: transparent; font-weight: 400; font-style: normal; font-variant-ligatures: normal; font-variant-caps: normal; font-variant-alternates: normal; font-variant-numeric: normal; font-variant-east-asian: normal; font-variant-position: normal; text-decoration: none; vertical-align: baseline; white-space: pre-wrap;&quot;&gt;Coordinator&lt;/span&gt;&lt;/b&gt;" style="shape=umlActor;verticalLabelPosition=bottom;verticalAlign=top;html=1;fontSize=18;" vertex="1" parent="1">
          <mxGeometry x="750" y="440" width="30" height="60" as="geometry" />
        </mxCell>
        <mxCell id="FnzWBg0ubWm0rds8tLxr-2" value="&lt;b id=&quot;docs-internal-guid-8c019339-7fff-daf8-ef29-357e7a186cb0&quot; style=&quot;font-style: normal; font-variant-caps: normal; letter-spacing: normal; text-align: start; text-indent: 0px; text-transform: none; white-space: normal; word-spacing: 0px; -webkit-text-stroke-width: 0px; text-decoration: none; caret-color: rgb(0, 0, 0); color: rgb(0, 0, 0); font-weight: normal; font-size: 18px;&quot;&gt;&lt;span style=&quot;font-size: 18px; color: rgb(0, 0, 0); background-color: transparent; font-weight: 400; font-style: normal; font-variant-ligatures: normal; font-variant-caps: normal; font-variant-alternates: normal; font-variant-numeric: normal; font-variant-east-asian: normal; font-variant-position: normal; text-decoration: none; vertical-align: baseline; white-space: pre-wrap;&quot;&gt;General User&lt;/span&gt;&lt;/b&gt;" style="shape=umlActor;verticalLabelPosition=bottom;verticalAlign=top;html=1;fontFamily=Helvetica;fontSize=18;" vertex="1" parent="1">
          <mxGeometry x="38" y="350" width="30" height="60" as="geometry" />
        </mxCell>
        <mxCell id="FnzWBg0ubWm0rds8tLxr-3" value="&lt;b style=&quot;font-style: normal; font-variant-caps: normal; letter-spacing: normal; text-align: start; text-indent: 0px; text-transform: none; white-space: normal; word-spacing: 0px; -webkit-text-stroke-width: 0px; text-decoration: none; caret-color: rgb(0, 0, 0); color: rgb(0, 0, 0); font-weight: normal; font-size: 16px;&quot; id=&quot;docs-internal-guid-7b9cd287-7fff-3553-db5d-55e4c7f1fc73&quot;&gt;&lt;span style=&quot;font-size: 16px; font-family: Sarabun, sans-serif; color: rgb(0, 0, 0); background-color: transparent; font-weight: 400; font-style: normal; font-variant-ligatures: normal; font-variant-caps: normal; font-variant-alternates: normal; font-variant-numeric: normal; font-variant-east-asian: normal; font-variant-position: normal; text-decoration: none; vertical-align: baseline; white-space: pre-wrap;&quot;&gt;Propose a project topic &lt;/span&gt;&lt;/b&gt;" style="ellipse;whiteSpace=wrap;html=1;fontSize=16;" vertex="1" parent="1">
          <mxGeometry x="180" y="140" width="120" height="80" as="geometry" />
        </mxCell>
        <mxCell id="FnzWBg0ubWm0rds8tLxr-4" value="Edit Project" style="ellipse;whiteSpace=wrap;html=1;fontSize=16;" vertex="1" parent="1">
          <mxGeometry x="220" y="230" width="120" height="80" as="geometry" />
        </mxCell>
        <mxCell id="FnzWBg0ubWm0rds8tLxr-5" value="&lt;b style=&quot;font-style: normal; font-variant-caps: normal; letter-spacing: normal; text-align: start; text-indent: 0px; text-transform: none; white-space: normal; word-spacing: 0px; -webkit-text-stroke-width: 0px; text-decoration: none; caret-color: rgb(0, 0, 0); color: rgb(0, 0, 0); font-weight: normal; font-size: 16px;&quot; id=&quot;docs-internal-guid-7b9cd287-7fff-3553-db5d-55e4c7f1fc73&quot;&gt;&lt;span style=&quot;font-size: 16px; font-family: Sarabun, sans-serif; color: rgb(0, 0, 0); background-color: transparent; font-weight: 400; font-style: normal; font-variant-ligatures: normal; font-variant-caps: normal; font-variant-alternates: normal; font-variant-numeric: normal; font-variant-east-asian: normal; font-variant-position: normal; text-decoration: none; vertical-align: baseline; white-space: pre-wrap;&quot;&gt;propose a project topic &lt;/span&gt;&lt;/b&gt;" style="ellipse;whiteSpace=wrap;html=1;fontSize=16;" vertex="1" parent="1">
          <mxGeometry x="170" y="350" width="120" height="80" as="geometry" />
        </mxCell>
        <mxCell id="FnzWBg0ubWm0rds8tLxr-6" value="&lt;b style=&quot;font-style: normal; font-variant-caps: normal; letter-spacing: normal; orphans: auto; text-align: start; text-indent: 0px; text-transform: none; white-space: normal; widows: auto; word-spacing: 0px; -webkit-text-stroke-width: 0px; text-decoration: none; caret-color: rgb(0, 0, 0); color: rgb(0, 0, 0); font-weight: normal;&quot; id=&quot;docs-internal-guid-68310f55-7fff-9648-eb8c-27d495209f90&quot;&gt;&lt;span style=&quot;font-size: 16pt; font-family: Sarabun, sans-serif; color: rgb(0, 0, 0); background-color: transparent; font-weight: 400; font-style: normal; font-variant-ligatures: normal; font-variant-caps: normal; font-variant-alternates: normal; font-variant-numeric: normal; font-variant-east-asian: normal; font-variant-position: normal; text-decoration: none; vertical-align: baseline; white-space: pre-wrap;&quot;&gt;topic examination results&lt;/span&gt;&lt;/b&gt;" style="ellipse;whiteSpace=wrap;html=1;fontSize=16;" vertex="1" parent="1">
          <mxGeometry x="410" y="420" width="210" height="80" as="geometry" />
        </mxCell>
        <mxCell id="FnzWBg0ubWm0rds8tLxr-7" value="&lt;b style=&quot;font-style: normal; font-variant-caps: normal; letter-spacing: normal; text-align: start; text-indent: 0px; text-transform: none; white-space: normal; word-spacing: 0px; -webkit-text-stroke-width: 0px; text-decoration: none; caret-color: rgb(0, 0, 0); color: rgb(0, 0, 0); font-weight: normal; font-size: 16px;&quot; id=&quot;docs-internal-guid-1336762b-7fff-05ba-3611-3f3cfacdaf16&quot;&gt;&lt;span style=&quot;font-size: 16px; font-family: Sarabun, sans-serif; color: rgb(0, 0, 0); background-color: transparent; font-weight: 400; font-style: normal; font-variant-ligatures: normal; font-variant-caps: normal; font-variant-alternates: normal; font-variant-numeric: normal; font-variant-east-asian: normal; font-variant-position: normal; text-decoration: none; vertical-align: baseline; white-space: pre-wrap;&quot;&gt;examine the student&#39;s project topic&lt;/span&gt;&lt;/b&gt;" style="ellipse;whiteSpace=wrap;html=1;fontSize=16;" vertex="1" parent="1">
          <mxGeometry x="460" y="290" width="180" height="70" as="geometry" />
        </mxCell>
        <mxCell id="FnzWBg0ubWm0rds8tLxr-8" value="&lt;b style=&quot;font-style: normal; font-variant-caps: normal; letter-spacing: normal; text-align: start; text-indent: 0px; text-transform: none; white-space: normal; word-spacing: 0px; -webkit-text-stroke-width: 0px; text-decoration: none; caret-color: rgb(0, 0, 0); color: rgb(0, 0, 0); font-weight: normal; font-size: 16px;&quot; id=&quot;docs-internal-guid-fc96d80a-7fff-5ba4-805b-7dc51da4abc0&quot;&gt;&lt;span style=&quot;font-size: 16px; font-family: Sarabun, sans-serif; color: rgb(0, 0, 0); background-color: transparent; font-weight: 400; font-style: normal; font-variant-ligatures: normal; font-variant-caps: normal; font-variant-alternates: normal; font-variant-numeric: normal; font-variant-east-asian: normal; font-variant-position: normal; text-decoration: none; vertical-align: baseline; white-space: pre-wrap;&quot;&gt;Confirm the proposed project topic&lt;/span&gt;&lt;/b&gt;" style="ellipse;whiteSpace=wrap;html=1;fontSize=16;" vertex="1" parent="1">
          <mxGeometry x="510" y="130" width="170" height="80" as="geometry" />
        </mxCell>
      </root>
    </mxGraphModel>
  </diagram>
</mxfile>
